<?xml version="1.0" encoding="UTF-8"?>
<svg width="600" height="400" viewBox="0 0 600 400" fill="none" xmlns="http://www.w3.org/2000/svg">
  <rect width="600" height="400" fill="#f8fafc"/>
  <rect x="20" y="20" width="560" height="360" rx="8" fill="white" stroke="#e2e8f0" stroke-width="2"/>
  
  <!-- Header -->
  <rect x="40" y="40" width="520" height="60" rx="4" fill="#22c55e"/>
  <text x="60" y="75" fill="white" font-family="Arial" font-size="18" font-weight="bold">SafariDesk Dashboard</text>
  
  <!-- Navigation -->
  <rect x="40" y="120" width="120" height="240" rx="4" fill="#f1f5f9" stroke="#e2e8f0"/>
  <text x="50" y="145" fill="#374151" font-family="Arial" font-size="12">Navigation</text>
  <rect x="50" y="155" width="100" height="20" rx="2" fill="#e2e8f0"/>
  <rect x="50" y="185" width="100" height="20" rx="2" fill="#e2e8f0"/>
  <rect x="50" y="215" width="100" height="20" rx="2" fill="#22c55e"/>
  
  <!-- Main Content -->
  <rect x="180" y="120" width="380" height="240" rx="4" fill="#ffffff" stroke="#e2e8f0"/>
  <text x="200" y="145" fill="#1f2937" font-family="Arial" font-size="14" font-weight="bold">Ticket Management</text>
  <rect x="200" y="160" width="340" height="180" rx="2" fill="#f8fafc" stroke="#e5e7eb"/>
  
  <!-- Sample tickets -->
  <rect x="210" y="170" width="320" height="30" rx="2" fill="white" stroke="#d1d5db"/>
  <circle cx="225" cy="185" r="4" fill="#ef4444"/>
  <text x="240" y="189" fill="#374151" font-family="Arial" font-size="11">High Priority - Login Issues</text>
  
  <rect x="210" y="210" width="320" height="30" rx="2" fill="white" stroke="#d1d5db"/>
  <circle cx="225" cy="225" r="4" fill="#eab308"/>
  <text x="240" y="229" fill="#374151" font-family="Arial" font-size="11">Medium - Email Configuration</text>
  
  <rect x="210" y="250" width="320" height="30" rx="2" fill="white" stroke="#d1d5db"/>
  <circle cx="225" cy="265" r="4" fill="#22c55e"/>
  <text x="240" y="269" fill="#374151" font-family="Arial" font-size="11">Low - Feature Request</text>
</svg>
