<?xml version="1.0" encoding="UTF-8"?>
<svg width="600" height="400" viewBox="0 0 600 400" fill="none" xmlns="http://www.w3.org/2000/svg">
  <rect width="600" height="400" fill="#f8fafc"/>
  <rect x="20" y="20" width="560" height="360" rx="8" fill="white" stroke="#e2e8f0" stroke-width="2"/>
  
  <!-- Title -->
  <text x="40" y="50" fill="#1f2937" font-family="Arial" font-size="18" font-weight="bold">Task Management Board</text>
  
  <!-- Kanban Columns -->
  <!-- To Do Column -->
  <rect x="40" y="70" width="160" height="290" rx="6" fill="#f1f5f9" stroke="#e2e8f0"/>
  <text x="110" y="95" fill="#374151" font-family="Arial" font-size="14" font-weight="bold" text-anchor="middle">TO DO</text>
  
  <!-- Task cards in To Do -->
  <rect x="50" y="110" width="140" height="60" rx="4" fill="white" stroke="#d1d5db"/>
  <circle cx="65" cy="125" r="3" fill="#ef4444"/>
  <text x="75" y="129" fill="#1f2937" font-family="Arial" font-size="11" font-weight="bold">Database Fix</text>
  <text x="55" y="145" fill="#6b7280" font-family="Arial" font-size="9">Fix connection timeout</text>
  <text x="55" y="157" fill="#6b7280" font-family="Arial" font-size="8">Due: Today</text>
  
  <rect x="50" y="180" width="140" height="60" rx="4" fill="white" stroke="#d1d5db"/>
  <circle cx="65" cy="195" r="3" fill="#3b82f6"/>
  <text x="75" y="199" fill="#1f2937" font-family="Arial" font-size="11" font-weight="bold">API Documentation</text>
  <text x="55" y="215" fill="#6b7280" font-family="Arial" font-size="9">Update REST endpoints</text>
  <text x="55" y="227" fill="#6b7280" font-family="Arial" font-size="8">Due: Friday</text>
  
  <!-- In Progress Column -->
  <rect x="220" y="70" width="160" height="290" rx="6" fill="#fef3c7" stroke="#f59e0b"/>
  <text x="290" y="95" fill="#374151" font-family="Arial" font-size="14" font-weight="bold" text-anchor="middle">IN PROGRESS</text>
  
  <!-- Task card in In Progress -->
  <rect x="230" y="110" width="140" height="60" rx="4" fill="white" stroke="#d1d5db"/>
  <circle cx="245" cy="125" r="3" fill="#eab308"/>
  <text x="255" y="129" fill="#1f2937" font-family="Arial" font-size="11" font-weight="bold">UI Improvements</text>
  <text x="235" y="145" fill="#6b7280" font-family="Arial" font-size="9">Responsive design</text>
  <text x="235" y="157" fill="#6b7280" font-family="Arial" font-size="8">John D. - 50%</text>
  
  <!-- Progress bar -->
  <rect x="235" y="162" width="130" height="4" rx="2" fill="#e5e7eb"/>
  <rect x="235" y="162" width="65" height="4" rx="2" fill="#eab308"/>
  
  <!-- Done Column -->
  <rect x="400" y="70" width="160" height="290" rx="6" fill="#dcfce7" stroke="#22c55e"/>
  <text x="470" y="95" fill="#374151" font-family="Arial" font-size="14" font-weight="bold" text-anchor="middle">DONE</text>
  
  <!-- Task cards in Done -->
  <rect x="410" y="110" width="140" height="60" rx="4" fill="white" stroke="#d1d5db"/>
  <circle cx="425" cy="125" r="3" fill="#22c55e"/>
  <text x="435" y="129" fill="#1f2937" font-family="Arial" font-size="11" font-weight="bold">Security Patch</text>
  <text x="415" y="145" fill="#6b7280" font-family="Arial" font-size="9">Apply latest updates</text>
  <text x="415" y="157" fill="#6b7280" font-family="Arial" font-size="8">✓ Completed</text>
  
  <rect x="410" y="180" width="140" height="60" rx="4" fill="white" stroke="#d1d5db"/>
  <circle cx="425" cy="195" r="3" fill="#22c55e"/>
  <text x="435" y="199" fill="#1f2937" font-family="Arial" font-size="11" font-weight="bold">Email Templates</text>
  <text x="415" y="215" fill="#6b7280" font-family="Arial" font-size="9">New notification design</text>
  <text x="415" y="227" fill="#6b7280" font-family="Arial" font-size="8">✓ Completed</text>
  
  <rect x="410" y="250" width="140" height="60" rx="4" fill="white" stroke="#d1d5db"/>
  <circle cx="425" cy="265" r="3" fill="#22c55e"/>
  <text x="435" y="269" fill="#1f2937" font-family="Arial" font-size="11" font-weight="bold">Performance Test</text>
  <text x="415" y="285" fill="#6b7280" font-family="Arial" font-size="9">Load testing complete</text>
  <text x="415" y="297" fill="#6b7280" font-family="Arial" font-size="8">✓ Completed</text>
  
  <!-- Statistics at bottom -->
  <rect x="40" y="320" width="520" height="30" rx="4" fill="#f3f4f6" stroke="#d1d5db"/>
  <text x="60" y="340" fill="#374151" font-family="Arial" font-size="12">Total Tasks: 6</text>
  <text x="200" y="340" fill="#374151" font-family="Arial" font-size="12">In Progress: 1</text>
  <text x="340" y="340" fill="#374151" font-family="Arial" font-size="12">Completed: 3</text>
  <text x="480" y="340" fill="#374151" font-family="Arial" font-size="12">On Time: 100%</text>
</svg>
